# xmcd CD database file
#
# Track frame offsets:
#	182
#	12047
#	24752
#	41895
#	54000
#	68330
#	81035
#	91640
#	103082
#	119170
#	130167
#	143047
#	153655
#	164225
#	174315
#	184217
#	197267
#	218790
#	230065
#	239007
#	252325
#	265822
#	278385
#	291782
#
# Disc length: 4044 seconds
#
# Revision: 2
# Processed by: cddbd v1.5.1PL0 Copyright (c) Steve Scherf et al.
# Submitted via: NeoAudio 1.40Release
#
DISCID=490fca18
DTITLE=Connie Francis - Connie Francis 24 Greatest Hits
DYEAR=1990
DGENRE=Pop
TTITLE0=Where The Boys Are
TTITLE1=If I Didn't Care
TTITLE2=Hurt
TTITLE3=Vacation
TTITLE4=Are You Lonesome Tonight?
TTITLE5=Together
TTITLE6=Among My Souvenirs
TTITLE7=Everbody's Somebody's Fool
TTITLE8=Old Time Rock "N" Roll
TTITLE9=My Heart Has A Mind Of It's Own
TTITLE10=Crying Time
TTITLE11=My Happiness
TTITLE12=Lipstick On Your Collar
TTITLE13=Who's Sorry now
TTITLE14=Stupid Cupid
TTITLE15=Misty Blue
TTITLE16=Torn Between Two Lovers
TTITLE17=Breakin' In A Brand New Broken Heart
TTITLE18=Many Tears Ago
TTITLE19=Don't Break The Heart That Loves You
TTITLE20=Cry
TTITLE21=Frankie
TTITLE22=Second Hand Love
TTITLE23=Something Stupid
EXTD=YEAR: 1990 ID3G: 13
EXTT0=
EXTT1=
EXTT2=
EXTT3=
EXTT4=
EXTT5=
EXTT6=
EXTT7=
EXTT8=
EXTT9=
EXTT10=
EXTT11=
EXTT12=
EXTT13=
EXTT14=
EXTT15=
EXTT16=
EXTT17=
EXTT18=
EXTT19=
EXTT20=
EXTT21=
EXTT22=
EXTT23=
PLAYORDER=
